HIERARCHY
ROOT hip
{
  OFFSET 0 0 0
  CHANNELS 6 Xposition Yposition Zposition Zrotation Yrotation Xrotation
  JOINT abdomen
  {
    OFFSET 0 20.6881 -0.73152
    CHANNELS 3 Zrotation Xrotation Yrotation
    JOINT chest
    {
      OFFSET 0 11.7043 -0.48768
      CHANNELS 3 Zrotation Xrotation Yrotation
      JOINT neck
      {
        OFFSET 0 22.1894 -2.19456
        CHANNELS 3 Zrotation Xrotation Yrotation
        JOINT head
        {
          OFFSET -0.24384 7.07133 1.2192
          CHANNELS 3 Zrotation Xrotation Yrotation
          JOINT leftEye
          {
            OFFSET 4.14528 8.04674 8.04672
            CHANNELS 3 Zrotation Xrotation Yrotation
            End Site
            {
              OFFSET 1 0 0
            }
          }
          JOINT rightEye
          {
            OFFSET -3.6576 8.04674 8.04672
            CHANNELS 3 Zrotation Xrotation Yrotation
            End Site
            {
              OFFSET 1 0 0
            }
          }
        }
      }
      JOINT rCollar
      {
        OFFSET -2.68224 19.2634 -4.8768
        CHANNELS 3 Zrotation Xrotation Yrotation
        JOINT rShldr
        {
          OFFSET -8.77824 -1.95073 1.46304
          CHANNELS 3 Zrotation Xrotation Yrotation
          JOINT rForeArm
          {
            OFFSET -28.1742 -1.7115 0.48768
            CHANNELS 3 Zrotation Xrotation Yrotation
            JOINT rHand
            {
              OFFSET -22.5879 0.773209 7.07136
              CHANNELS 3 Zrotation Xrotation Yrotation
              JOINT rThumb1
              {
                OFFSET -1.2192 -0.487915 3.41376
                CHANNELS 3 Zrotation Xrotation Yrotation
                JOINT rThumb2
                {
                  OFFSET -3.37035 -0.52449 3.41376
                  CHANNELS 3 Zrotation Xrotation Yrotation
                  End Site
                  {
                    OFFSET -1.78271 -1.18214 1.43049
                  }
                }
              }
              JOINT rIndex1
              {
                OFFSET -7.75947 0.938293 5.60832
                CHANNELS 3 Zrotation Xrotation Yrotation
                JOINT rIndex2
                {
                  OFFSET -2.54057 -0.884171 1.56538
                  CHANNELS 3 Zrotation Xrotation Yrotation
                  End Site
                  {
                    OFFSET -1.62519 -0.234802 1.16502
                  }
                }
              }
              JOINT rMid1
              {
                OFFSET -8.24714 1.18213 3.41376
                CHANNELS 3 Zrotation Xrotation Yrotation
                JOINT rMid2
                {
                  OFFSET -3.10165 -0.590103 1.0647
                  CHANNELS 3 Zrotation Xrotation Yrotation
                  End Site
                  {
                    OFFSET -2.48547 -0.328903 0.83742
                  }
                }
              }
              JOINT rRing1
              {
                OFFSET -8.82822 0.546677 1.51678
                CHANNELS 3 Zrotation Xrotation Yrotation
                JOINT rRing2
                {
                  OFFSET -2.60934 -0.819778 -0.0198488
                  CHANNELS 3 Zrotation Xrotation Yrotation
                  End Site
                  {
                    OFFSET -2.33842 -0.294052 0.168128
                  }
                }
              }
              JOINT rPinky1
              {
                OFFSET -8.27202 -0.0477905 -0.4584
                CHANNELS 3 Zrotation Xrotation Yrotation
                JOINT rPinky2
                {
                  OFFSET -1.82734 -0.647385 -0.700984
                  CHANNELS 3 Zrotation Xrotation Yrotation
                  End Site
                  {
                    OFFSET -1.69225 -0.51767 -0.607171
                  }
                }
              }
            }
          }
        }
      }
      JOINT lCollar
      {
        OFFSET 2.68224 19.2634 -4.8768
        CHANNELS 3 Zrotation Xrotation Yrotation
        JOINT lShldr
        {
          OFFSET 8.77824 -1.95073 1.46304
          CHANNELS 3 Zrotation Xrotation Yrotation
          JOINT lForeArm
          {
            OFFSET 28.1742 -1.7115 0.48768
            CHANNELS 3 Zrotation Xrotation Yrotation
            JOINT lHand
            {
              OFFSET 22.5879 0.773209 7.07136
              CHANNELS 3 Zrotation Xrotation Yrotation
              JOINT lThumb1
              {
                OFFSET 1.2192 -0.487915 3.41376
                CHANNELS 3 Zrotation Xrotation Yrotation
                JOINT lThumb2
                {
                  OFFSET 3.37035 -0.52449 3.41376
                  CHANNELS 3 Zrotation Xrotation Yrotation
                  End Site
                  {
                    OFFSET 1.78271 -1.18214 1.43049
                  }
                }
              }
              JOINT lIndex1
              {
                OFFSET 7.75947 0.938293 5.60832
                CHANNELS 3 Zrotation Xrotation Yrotation
                JOINT lIndex2
                {
                  OFFSET 2.54057 -0.884171 1.56538
                  CHANNELS 3 Zrotation Xrotation Yrotation
                  End Site
                  {
                    OFFSET 1.62519 -0.234802 1.16502
                  }
                }
              }
              JOINT lMid1
              {
                OFFSET 8.24714 1.18213 3.41376
                CHANNELS 3 Zrotation Xrotation Yrotation
                JOINT lMid2
                {
                  OFFSET 3.10165 -0.590103 1.0647
                  CHANNELS 3 Zrotation Xrotation Yrotation
                  End Site
                  {
                    OFFSET 2.48547 -0.328903 0.83742
                  }
                }
              }
              JOINT lRing1
              {
                OFFSET 8.82822 0.546677 1.51678
                CHANNELS 3 Zrotation Xrotation Yrotation
                JOINT lRing2
                {
                  OFFSET 2.60934 -0.819778 -0.0198488
                  CHANNELS 3 Zrotation Xrotation Yrotation
                  End Site
                  {
                    OFFSET 2.33842 -0.294052 0.168128
                  }
                }
              }
              JOINT lPinky1
              {
                OFFSET 8.27202 -0.0477905 -0.4584
                CHANNELS 3 Zrotation Xrotation Yrotation
                JOINT lPinky2
                {
                  OFFSET 1.82734 -0.647385 -0.700984
                  CHANNELS 3 Zrotation Xrotation Yrotation
                  End Site
                  {
                    OFFSET 1.69225 -0.51767 -0.607171
                  }
                }
              }
            }
          }
        }
      }
    }
  }
  JOINT rButtock
  {
    OFFSET -8.77824 4.35084 1.2192
    CHANNELS 3 Zrotation Xrotation Yrotation
    JOINT rThigh
    {
      OFFSET 0 -1.70687 -2.19456
      CHANNELS 3 Zrotation Xrotation Yrotation
      JOINT rShin
      {
        OFFSET 0 -36.8199 0.73152
        CHANNELS 3 Zrotation Xrotation Yrotation
        JOINT rFoot
        {
          OFFSET 0.73152 -45.1104 -5.12064
          CHANNELS 3 Zrotation Xrotation Yrotation
          End Site
          {
            OFFSET -1.1221 -3.69964 12.103
          }
        }
      }
    }
  }
  JOINT lButtock
  {
    OFFSET 8.77824 4.35084 1.2192
    CHANNELS 3 Zrotation Xrotation Yrotation
    JOINT lThigh
    {
      OFFSET 0 -1.70687 -2.19456
      CHANNELS 3 Zrotation Xrotation Yrotation
      JOINT lShin
      {
        OFFSET 0 -36.8199 0.73152
        CHANNELS 3 Zrotation Xrotation Yrotation
        JOINT lFoot
        {
          OFFSET -0.73152 -45.1104 -5.12064
          CHANNELS 3 Zrotation Xrotation Yrotation
          End Site
          {
            OFFSET 1.1221 -3.69964 12.103
          }
        }
      }
    }
  }
}
MOTION
Frames:	4
Frame Time:	0.00833333
292.354 84.8928 4.93951 0.0 0.0 0.0 -0.180148 -0.000587417 -0.00513799 -0.0496821 -0.0008608 -0.00860668 -2.93632e-15 -1.59028e-15 2.48481e-17 -8.79001e-15 -6.36111e-15 6.98852e-17 -0.0 0.0 0.0 -0.0 0.0 0.0 -1.39288e-15 -1.94126e-18 2.48481e-16 -2.86555e-14 -3.97569e-16 7.95139e-16 -5.25438e-13 1.54257e-13 -1.90833e-14 -6.04077e-12 -1.72222e-13 5.08889e-14 -1.42452e-11 -3.62566e-14 1.01778e-13 -2.46024e-11 -6.04305e-14 1.81292e-13 -1.42358e-11 -3.37934e-14 9.85972e-14 7.73091 5.47488 0.417314 -1.42451e-11 -3.598e-14 1.08139e-13 2.90554 0.965183 0.102902 -1.42361e-11 -3.56818e-14 1.08934e-13 10.2786 0.731801 0.0259123 -1.42481e-11 -3.49861e-14 1.20861e-13 2.22167 -0.733487 -0.20892 -1.4896e-15 -1.74713e-18 -2.48481e-16 -3.21838e-14 1.2424e-17 -3.97569e-16 -5.2837e-13 -1.60022e-13 2.22639e-14 -6.03828e-12 1.49039e-13 4.13472e-14 -1.42441e-11 -2.33376e-14 1.17681e-13 -2.45944e-11 -4.13472e-14 2.04351e-13 -1.42517e-11 -1.90833e-14 1.27222e-13 -7.73091 5.47488 -0.417314 -1.42446e-11 -2.32578e-14 1.17681e-13 -2.90554 0.965183 -0.102902 -1.42517e-11 -2.32578e-14 1.1291e-13 -10.2786 0.731801 -0.0259123 -1.42399e-11 -2.10712e-14 1.04958e-13 -2.22167 -0.733487 0.20892 -2.03217e-16 0.0 -3.88251e-19 0.373556 -2.84391 -0.0347136 -0.00664974 -0.401534 -0.0584286 -0.509706 3.24465 0.124534 2.03217e-16 0.0 3.88251e-19 -0.647783 -3.54407 0.0518677 0.00461065 0.866741 0.0396104 0.511851 2.67657 -0.11318
289.719 83.0526 0.799734 30.1782 -87.7435 -17.4924 -0.891247 -4.88552 -0.334834 0.693834 0.143416 -0.116685 -1.64872 5.96851 -0.713028 1.61969 -8.997 -1.15424 -0.0 0.0 0.0 -0.0 0.0 0.0 -2.09285e-15 -9.49716e-14 1.40625e-15 23.6331 3.75681 -0.426961 -2.18035 -0.772993 3.6053 0.165976 9.0588 1.21643 -1.63536e-09 -2.74555e-10 6.06726e-10 -2.80623e-09 -4.76299e-10 1.08921e-09 -1.63535e-09 -2.74553e-10 6.06721e-10 7.73091 5.47488 0.417314 -1.63536e-09 -2.74554e-10 6.06732e-10 2.90554 0.965183 0.102902 -1.63535e-09 -2.74554e-10 6.06731e-10 10.2786 0.731801 0.0259123 -1.63536e-09 -2.74553e-10 6.06743e-10 2.22167 -0.733487 -0.20892 -2.19747e-15 -9.49714e-14 9.6364e-16 -24.1269 -6.64069 1.1055 1.54703 -0.498136 -2.59262 -0.815727 20.2793 -2.24528 1.55694e-09 -3.71678e-10 2.03024e-10 2.67328e-09 -6.58418e-10 2.55016e-10 1.55693e-09 -3.71675e-10 2.03033e-10 -7.73091 5.47488 -0.417314 1.55694e-09 -3.71678e-10 2.03021e-10 -2.90554 0.965183 -0.102902 1.55694e-09 -3.71678e-10 2.0302e-10 -10.2786 0.731801 -0.0259123 1.55695e-09 -3.71676e-10 2.03011e-10 -2.22167 -0.733487 0.20892 -2.03217e-16 0.0 -3.88251e-19 -0.234979 -8.90435 3.09711 -0.0109662 6.17576 0.0243274 -0.793534 2.88441 -7.56483 2.03217e-16 0.0 3.88251e-19 0.01084 -9.83615 -3.59676 -0.0120975 7.54346 -0.0911949 0.779696 -1.61896 2.75625
289.696 83.0524 0.749615 30.4557 -87.776 -17.7683 -1.70503 -10.0484 -0.692111 1.47885 0.296973 -0.231113 -3.2326 12.2744 -1.49713 2.91741 -18.498 -2.48187 -0.0 0.0 0.0 -0.0 0.0 0.0 -2.97343e-15 -2.10599e-13 2.7892e-15 48.6804 7.71977 -0.884953 -4.37833 -1.57928 7.41641 -0.0978519 18.6323 2.60927 -3.38046e-09 -5.67827e-10 1.24167e-09 -5.80101e-09 -9.85151e-10 2.23039e-09 -3.38045e-09 -5.67826e-10 1.24166e-09 7.73091 5.47488 0.417314 -3.38046e-09 -5.67827e-10 1.24167e-09 2.90554 0.965183 0.102902 -3.38045e-09 -5.67827e-10 1.24167e-09 10.2786 0.731801 0.0259123 -3.38046e-09 -5.67826e-10 1.24168e-09 2.22167 -0.733487 -0.20892 -3.08349e-15 -2.10599e-13 2.40405e-15 -49.3463 -13.6473 2.32314 3.13346 -1.02115 -5.33395 0.576989 41.5941 -5.79708 3.24223e-09 -7.73293e-10 4.09481e-10 5.56639e-09 -1.36941e-09 5.09133e-10 3.24222e-09 -7.73291e-10 4.09491e-10 -7.73091 5.47488 -0.417314 3.24223e-09 -7.73293e-10 4.09475e-10 -2.90554 0.965183 -0.102902 3.24223e-09 -7.73294e-10 4.09478e-10 -10.2786 0.731801 -0.0259123 3.24224e-09 -7.73292e-10 4.09469e-10 -2.22167 -0.733487 0.20892 -2.03217e-16 0.0 -3.88251e-19 -0.137353 -15.2385 6.56697 -0.0365817 13.1283 0.114518 -1.19822 2.45983 -15.6916 2.03217e-16 0.0 3.88251e-19 -0.198497 -16.3852 -7.64953 0.00433372 14.6016 -0.235422 1.53082 -6.13574 5.81273
289.664 83.0529 0.708041 31.7079 -87.7977 -19.0164 -2.48693 -14.6534 -1.02388 2.1825 0.431964 -0.33285 -4.48135 17.8941 -2.23569 3.65987 -26.9444 -3.83716 -0.0 0.0 0.0 -0.0 0.0 0.0 -3.49281e-15 -2.84911e-13 3.72178e-15 71.0701 11.2679 -1.30326 -6.25093 -2.28228 10.8236 -0.776238 27.1243 4.04978 -4.87759e-09 -8.23591e-10 1.81997e-09 -8.36948e-09 -1.42878e-09 3.26728e-09 -4.87759e-09 -8.2359e-10 1.81997e-09 7.73091 5.47488 0.417314 -4.8776e-09 -8.23591e-10 1.81998e-09 2.90554 0.965183 0.102902 -4.87759e-09 -8.23592e-10 1.81998e-09 10.2786 0.731801 0.0259123 -4.8776e-09 -8.2359e-10 1.81999e-09 2.22167 -0.733487 -0.20892 -3.6132e-15 -2.84911e-13 3.38788e-15 -71.5708 -19.8914 3.50351 4.50626 -1.48217 -7.78018 6.39274 60.262 -12.8181 4.69932e-09 -1.11499e-09 6.08836e-10 8.06903e-09 -1.97517e-09 7.64641e-10 4.69931e-09 -1.11499e-09 6.08845e-10 -7.73091 5.47488 -0.417314 4.69932e-09 -1.11499e-09 6.08826e-10 -2.90554 0.965183 -0.102902 4.69932e-09 -1.11499e-09 6.08833e-10 -10.2786 0.731801 -0.0259123 4.69933e-09 -1.11499e-09 6.08824e-10 -2.22167 -0.733487 0.20892 -2.03217e-16 0.0 -3.88251e-19 0.647002 -20.7771 9.89812 -0.0790108 19.3302 0.200729 -1.65153 2.06294 -22.9299 2.03217e-16 0.0 3.88251e-19 -1.2268 -22.0632 -11.5946 0.051165 20.8965 -0.375101 2.61648 -10.1025 8.62631
